<svg width="120" height="60" viewBox="0 0 120 60" xmlns="http://www.w3.org/2000/svg">
  <!-- Hand -->
  <path d="M15 35 Q15 30 20 28 Q25 26 30 28 Q32 30 32 35 Q32 40 30 42 Q25 44 20 42 Q15 40 15 35" 
        fill="#1e40af" stroke="#1e40af" stroke-width="1"/>
  
  <!-- Dollar Coin -->
  <circle cx="24" cy="35" r="8" fill="#1e40af"/>
  <text x="24" y="39" text-anchor="middle" fill="white" font-family="Arial, sans-serif" font-size="10" font-weight="bold">$</text>
  
  <!-- Upward Arrow -->
  <path d="M32 35 L45 22 M45 22 L42 19 M45 22 L48 19" 
        stroke="#1e40af" stroke-width="3" stroke-linecap="round" stroke-linejoin="round"/>
  
  <!-- Graduation Cap -->
  <path d="M50 20 L70 20 L60 15 Z" fill="url(#gradient)"/>
  <rect x="58" y="20" width="4" height="2" fill="url(#gradient)"/>
  <circle cx="60" cy="22" r="1" fill="#0d9488"/>
  
  <!-- Tassel -->
  <path d="M60 22 Q62 24 60 26 Q58 24 60 22" fill="#0d9488"/>
  <circle cx="60" cy="26" r="0.5" fill="#0d9488"/>
  
  <!-- Gradient definition -->
  <defs>
    <linearGradient id="gradient" x1="0%" y1="0%" x2="100%" y2="0%">
      <stop offset="0%" style="stop-color:#0d9488;stop-opacity:1" />
      <stop offset="100%" style="stop-color:#1e40af;stop-opacity:1" />
    </linearGradient>
  </defs>
  
  <!-- Text: Give2Go -->
  <text x="60" y="45" text-anchor="middle" fill="#1e40af" font-family="Arial, sans-serif" font-size="14" font-weight="bold">Give2Go</text>
</svg>
